<svg width="24" height="28" viewBox="0 0 24 28" fill="none" xmlns="http://www.w3.org/2000/svg">
<path fill-rule="evenodd" clip-rule="evenodd" d="M10.2857 2.1875C10.2857 1.73995 10.4663 1.31072 10.7878 0.994257C11.1093 0.67779 11.5453 0.5 12 0.5C12.4547 0.5 12.8907 0.67779 13.2122 0.994257C13.5337 1.31072 13.7143 1.73995 13.7143 2.1875V11.4688C13.7143 11.6925 13.8046 11.9071 13.9653 12.0654C14.1261 12.2236 14.3441 12.3125 14.5714 12.3125C14.7988 12.3125 15.0168 12.2236 15.1775 12.0654C15.3383 11.9071 15.4286 11.6925 15.4286 11.4688V3.875C15.4286 3.42745 15.6092 2.99822 15.9307 2.68176C16.2522 2.36529 16.6882 2.1875 17.1429 2.1875C17.5975 2.1875 18.0335 2.36529 18.355 2.68176C18.6765 2.99822 18.8571 3.42745 18.8571 3.875V11.4688C18.8571 11.6925 18.9474 11.9071 19.1082 12.0654C19.2689 12.2236 19.487 12.3125 19.7143 12.3125C19.9416 12.3125 20.1596 12.2236 20.3204 12.0654C20.4811 11.9071 20.5714 11.6925 20.5714 11.4688V7.25C20.5714 6.80245 20.752 6.37323 21.0735 6.05676C21.395 5.74029 21.8311 5.5625 22.2857 5.5625C22.7404 5.5625 23.1764 5.74029 23.4979 6.05676C23.8194 6.37323 24 6.80245 24 7.25V15.6875C24 17.2387 23.6896 18.7748 23.0866 20.2079C22.4835 21.6411 21.5996 22.9433 20.4853 24.0402C19.371 25.1371 18.0481 26.0072 16.5922 26.6008C15.1363 27.1945 13.5759 27.5 12 27.5C10.4241 27.5 8.86371 27.1945 7.4078 26.6008C5.95189 26.0072 4.62902 25.1371 3.51472 24.0402C2.40042 22.9433 1.5165 21.6411 0.913446 20.2079C0.310389 18.7748 -2.34822e-08 17.2387 0 15.6875V12.3125C0 11.8649 0.180612 11.4357 0.502103 11.1193C0.823593 10.8028 1.25963 10.625 1.71429 10.625C2.16894 10.625 2.60498 10.8028 2.92647 11.1193C3.24796 11.4357 3.42857 11.8649 3.42857 12.3125V16.5312C3.42857 16.755 3.51888 16.9696 3.67962 17.1279C3.84037 17.2861 4.05839 17.375 4.28571 17.375C4.51304 17.375 4.73106 17.2861 4.89181 17.1279C5.05255 16.9696 5.14286 16.755 5.14286 16.5312V3.875C5.14286 3.42745 5.32347 2.99822 5.64496 2.68176C5.96645 2.36529 6.40249 2.1875 6.85714 2.1875C7.3118 2.1875 7.74783 2.36529 8.06933 2.68176C8.39082 2.99822 8.57143 3.42745 8.57143 3.875V11.4688C8.57143 11.6925 8.66173 11.9071 8.82248 12.0654C8.98322 12.2236 9.20124 12.3125 9.42857 12.3125C9.6559 12.3125 9.87392 12.2236 10.0347 12.0654C10.1954 11.9071 10.2857 11.6925 10.2857 11.4688V2.1875Z" fill="black"/>
</svg>
