<svg width="31" height="31" viewBox="0 0 31 31" fill="none" xmlns="http://www.w3.org/2000/svg">
<rect x="0.546476" y="3.69599" width="26.3917" height="26.3917" rx="7.5" transform="rotate(0.0990171 0.546476 3.69599)" fill="black" stroke="black"/>
<line x1="6.40244" y1="12.256" x2="21.9512" y2="12.256" stroke="white" stroke-width="2"/>
<line x1="6.40244" y1="16.8293" x2="21.9512" y2="16.8293" stroke="white" stroke-width="2"/>
<line x1="6.40244" y1="21.4024" x2="18.2927" y2="21.4024" stroke="white" stroke-width="2"/>
<path d="M27.1463 2.03658C27.1463 1.39 26.6222 0.865845 25.9756 0.865845C25.329 0.865845 24.8049 1.39 24.8049 2.03658V4.2195H22.622C21.9754 4.2195 21.4512 4.74366 21.4512 5.39023C21.4512 6.03681 21.9754 6.56097 22.622 6.56097H24.8049V8.74389C24.8049 9.39047 25.329 9.91463 25.9756 9.91463C26.6222 9.91463 27.1463 9.39047 27.1463 8.74389V6.56097H29.3293C29.9759 6.56097 30.5 6.03681 30.5 5.39023C30.5 4.74366 29.9759 4.2195 29.3293 4.2195H27.1463V2.03658Z" fill="black" stroke="white" stroke-linecap="round" stroke-linejoin="round"/>
</svg>
