<svg width="34" height="32" viewBox="0 0 34 32" fill="none" xmlns="http://www.w3.org/2000/svg">
<rect x="2.55089" y="1.13557" width="28.9483" height="28.9483" rx="7.5" transform="rotate(0.0990171 2.55089 1.13557)" stroke="#CFCFCF"/>
<path d="M10.6191 8.76851L23.8642 8.7914L23.878 13.228L23.2442 13.2269C23.0392 11.6438 22.4467 10.5722 21.4665 10.0119C20.9156 9.70297 20.0924 9.53326 18.9967 9.50272L18.9767 21.0828C18.9753 21.892 19.114 22.4294 19.3929 22.6948C19.6789 22.9603 20.2694 23.0938 21.1646 23.0954L21.1637 23.6539L13.3219 23.6404L13.3228 23.0818C14.1822 23.0833 14.7518 22.9518 15.0315 22.6873C15.3185 22.4157 15.4626 21.8788 15.464 21.0767L15.484 9.49665C14.4098 9.52344 13.5859 9.69031 13.0124 9.99726C11.9587 10.5684 11.3625 11.638 11.2237 13.2061L10.5899 13.205L10.6191 8.76851Z" fill="black"/>
<rect x="0.5" y="14.1347" width="4" height="4" fill="black" stroke="white"/>
<rect x="29.5" y="14.1347" width="4" height="4" fill="black" stroke="white"/>
</svg>
