<svg width="266" height="52" viewBox="0 0 266 52" fill="none" xmlns="http://www.w3.org/2000/svg">
<path d="M62.96 39.2C62.4533 39.2 62.0267 39.0267 61.68 38.68C61.3333 38.3333 61.16 37.9067 61.16 37.4V20.24C61.16 19.7333 61.3333 19.3067 61.68 18.96C62.0267 18.5867 62.4533 18.4 62.96 18.4C63.4667 18.4 63.8933 18.5867 64.24 18.96C64.6133 19.3067 64.8 19.7333 64.8 20.24V21.88C65.8133 20.76 66.9067 19.8667 68.08 19.2C69.2533 18.5333 70.64 18.2 72.24 18.2C73.7067 18.2 74.9733 18.5467 76.04 19.24C77.1333 19.9333 77.96 20.88 78.52 22.08C79.1067 23.28 79.4 24.6 79.4 26.04V37.4C79.4 37.9067 79.2133 38.3333 78.84 38.68C78.4933 39.0267 78.0667 39.2 77.56 39.2C77.0533 39.2 76.6267 39.0267 76.28 38.68C75.9333 38.3333 75.76 37.9067 75.76 37.4V26.44C75.76 23.1867 74.2933 21.56 71.36 21.56C70.0267 21.56 68.8267 21.9067 67.76 22.6C66.72 23.2933 65.7333 24.2267 64.8 25.4V37.4C64.8 37.9067 64.6133 38.3333 64.24 38.68C63.8933 39.0267 63.4667 39.2 62.96 39.2ZM94.535 39.4C92.4817 39.4 90.6817 38.96 89.135 38.08C87.5883 37.2 86.3883 35.96 85.535 34.36C84.7083 32.7333 84.295 30.88 84.295 28.8C84.295 26.72 84.7083 24.88 85.535 23.28C86.3883 21.6533 87.5883 20.4 89.135 19.52C90.6817 18.64 92.4817 18.2 94.535 18.2C96.5617 18.2 98.3483 18.64 99.895 19.52C101.442 20.4 102.642 21.6533 103.495 23.28C104.348 24.88 104.775 26.72 104.775 28.8C104.775 30.88 104.348 32.7333 103.495 34.36C102.642 35.96 101.442 37.2 99.895 38.08C98.3483 38.96 96.5617 39.4 94.535 39.4ZM94.535 36.08C95.6283 36.08 96.6683 35.8267 97.655 35.32C98.6683 34.8133 99.495 34.0133 100.135 32.92C100.802 31.8267 101.135 30.44 101.135 28.76C101.135 27.1067 100.802 25.7333 100.135 24.64C99.495 23.5467 98.6683 22.76 97.655 22.28C96.6683 21.7733 95.6283 21.52 94.535 21.52C93.415 21.52 92.3483 21.7733 91.335 22.28C90.3483 22.76 89.535 23.5467 88.895 24.64C88.255 25.7333 87.935 27.1067 87.935 28.76C87.935 30.44 88.255 31.8267 88.895 32.92C89.535 34.0133 90.3483 34.8133 91.335 35.32C92.3483 35.8267 93.415 36.08 94.535 36.08ZM116.755 39.4C112.861 39.4 110.915 37.64 110.915 34.12V21.72H108.075C107.861 21.72 107.675 21.6533 107.515 21.52C107.381 21.36 107.315 21.1733 107.315 20.96C107.315 20.6933 107.435 20.4667 107.675 20.28L113.115 14.96C113.355 14.72 113.581 14.6 113.795 14.6C114.008 14.6 114.181 14.68 114.315 14.84C114.475 15 114.555 15.1867 114.555 15.4V18.6H119.075C119.528 18.6 119.901 18.7467 120.195 19.04C120.488 19.3333 120.635 19.7067 120.635 20.16C120.635 20.5867 120.488 20.96 120.195 21.28C119.901 21.5733 119.528 21.72 119.075 21.72H114.555V33.8C114.555 34.84 114.795 35.5067 115.275 35.8C115.781 36.0667 116.408 36.2 117.155 36.2C117.688 36.2 118.221 36.12 118.755 35.96C118.861 35.9333 118.968 35.9067 119.075 35.88C119.208 35.8533 119.368 35.84 119.555 35.84C119.928 35.84 120.261 35.9867 120.555 36.28C120.848 36.5467 120.995 36.88 120.995 37.28C120.995 37.8933 120.688 38.36 120.075 38.68C119.035 39.16 117.928 39.4 116.755 39.4ZM133.835 39.4C130.581 39.4 128.035 38.48 126.195 36.64C124.381 34.7733 123.475 32.16 123.475 28.8C123.475 26.9067 123.821 25.16 124.515 23.56C125.208 21.96 126.275 20.6667 127.715 19.68C129.155 18.6933 130.928 18.2 133.035 18.2C135.008 18.2 136.715 18.6667 138.155 19.6C139.595 20.5067 140.688 21.7333 141.435 23.28C142.181 24.8 142.555 26.4667 142.555 28.28C142.555 28.7867 142.381 29.2133 142.035 29.56C141.715 29.9067 141.275 30.08 140.715 30.08H127.155C127.368 31.9467 128.061 33.4 129.235 34.44C130.408 35.48 132.048 36 134.155 36C135.275 36 136.248 35.8933 137.075 35.68C137.928 35.4667 138.755 35.16 139.555 34.76C139.768 34.6533 140.008 34.6 140.275 34.6C140.701 34.6 141.075 34.7467 141.395 35.04C141.715 35.3333 141.875 35.7067 141.875 36.16C141.875 36.7467 141.528 37.24 140.835 37.64C139.795 38.2267 138.768 38.6667 137.755 38.96C136.741 39.2533 135.435 39.4 133.835 39.4ZM138.955 27.12C138.875 25.8133 138.528 24.72 137.915 23.84C137.328 22.96 136.595 22.32 135.715 21.92C134.835 21.4933 133.941 21.28 133.035 21.28C132.128 21.28 131.235 21.4933 130.355 21.92C129.475 22.32 128.741 22.96 128.155 23.84C127.568 24.72 127.235 25.8133 127.155 27.12H138.955ZM152.571 39.4C151.398 39.4 150.304 39.16 149.291 38.68C148.304 38.2 147.518 37.5067 146.931 36.6C146.344 35.6667 146.051 34.6 146.051 33.4C146.051 31.4267 146.824 29.8533 148.371 28.68C149.944 27.5067 152.238 26.92 155.251 26.92H160.091V26.6C160.091 24.84 159.651 23.5733 158.771 22.8C157.918 22.0267 156.571 21.64 154.731 21.64C153.718 21.64 152.811 21.72 152.011 21.88C151.238 22.04 150.371 22.28 149.411 22.6C149.198 22.6533 149.024 22.68 148.891 22.68C148.491 22.68 148.144 22.5333 147.851 22.24C147.558 21.9467 147.411 21.5867 147.411 21.16C147.411 20.44 147.758 19.9333 148.451 19.64C150.718 18.68 153.024 18.2 155.371 18.2C157.211 18.2 158.758 18.5733 160.011 19.32C161.291 20.0667 162.224 21.04 162.811 22.24C163.424 23.4133 163.731 24.6933 163.731 26.08V37.4C163.731 37.9067 163.544 38.3333 163.171 38.68C162.824 39.0267 162.398 39.2 161.891 39.2C161.384 39.2 160.958 39.0267 160.611 38.68C160.264 38.3333 160.091 37.9067 160.091 37.4V36.36C158.118 38.3867 155.611 39.4 152.571 39.4ZM153.931 36.2C155.104 36.2 156.238 35.92 157.331 35.36C158.424 34.7733 159.344 34.0533 160.091 33.2V29.84H155.731C151.704 29.84 149.691 30.8933 149.691 33C149.691 33.96 150.011 34.7333 150.651 35.32C151.318 35.9067 152.411 36.2 153.931 36.2ZM171.632 39.2C171.125 39.2 170.699 39.0267 170.352 38.68C170.005 38.3333 169.832 37.9067 169.832 37.4V11.44C169.832 10.9333 170.005 10.5067 170.352 10.16C170.699 9.78667 171.125 9.6 171.632 9.6C172.139 9.6 172.565 9.78667 172.912 10.16C173.285 10.5067 173.472 10.9333 173.472 11.44V21.88C174.485 20.76 175.579 19.8667 176.752 19.2C177.925 18.5333 179.312 18.2 180.912 18.2C182.379 18.2 183.645 18.5467 184.712 19.24C185.805 19.9333 186.632 20.88 187.192 22.08C187.779 23.28 188.072 24.6 188.072 26.04V37.4C188.072 37.9067 187.885 38.3333 187.512 38.68C187.165 39.0267 186.739 39.2 186.232 39.2C185.725 39.2 185.299 39.0267 184.952 38.68C184.605 38.3333 184.432 37.9067 184.432 37.4V26.44C184.432 23.1867 182.965 21.56 180.032 21.56C178.699 21.56 177.499 21.9067 176.432 22.6C175.392 23.2933 174.405 24.2267 173.472 25.4V37.4C173.472 37.9067 173.285 38.3333 172.912 38.68C172.565 39.0267 172.139 39.2 171.632 39.2ZM203.207 39.4C201.154 39.4 199.354 38.96 197.807 38.08C196.26 37.2 195.06 35.96 194.207 34.36C193.38 32.7333 192.967 30.88 192.967 28.8C192.967 26.72 193.38 24.88 194.207 23.28C195.06 21.6533 196.26 20.4 197.807 19.52C199.354 18.64 201.154 18.2 203.207 18.2C205.234 18.2 207.02 18.64 208.567 19.52C210.114 20.4 211.314 21.6533 212.167 23.28C213.02 24.88 213.447 26.72 213.447 28.8C213.447 30.88 213.02 32.7333 212.167 34.36C211.314 35.96 210.114 37.2 208.567 38.08C207.02 38.96 205.234 39.4 203.207 39.4ZM203.207 36.08C204.3 36.08 205.34 35.8267 206.327 35.32C207.34 34.8133 208.167 34.0133 208.807 32.92C209.474 31.8267 209.807 30.44 209.807 28.76C209.807 27.1067 209.474 25.7333 208.807 24.64C208.167 23.5467 207.34 22.76 206.327 22.28C205.34 21.7733 204.3 21.52 203.207 21.52C202.087 21.52 201.02 21.7733 200.007 22.28C199.02 22.76 198.207 23.5467 197.567 24.64C196.927 25.7333 196.607 27.1067 196.607 28.76C196.607 30.44 196.927 31.8267 197.567 32.92C198.207 34.0133 199.02 34.8133 200.007 35.32C201.02 35.8267 202.087 36.08 203.207 36.08ZM220.343 39.2C219.836 39.2 219.409 39.0267 219.063 38.68C218.716 38.3333 218.543 37.9067 218.543 37.4V11.44C218.543 10.9333 218.716 10.5067 219.063 10.16C219.409 9.78667 219.836 9.6 220.343 9.6C220.876 9.6 221.316 9.77333 221.663 10.12C222.009 10.4667 222.183 10.9067 222.183 11.44V37.4C222.183 37.9067 221.996 38.3333 221.623 38.68C221.276 39.0267 220.849 39.2 220.343 39.2ZM230.224 14.44C229.664 14.44 229.184 14.24 228.784 13.84C228.384 13.44 228.184 12.96 228.184 12.4V12.24C228.184 11.68 228.384 11.2 228.784 10.8C229.184 10.4 229.664 10.2 230.224 10.2H230.464C231.024 10.2 231.504 10.4 231.904 10.8C232.304 11.2 232.504 11.68 232.504 12.24V12.4C232.504 12.96 232.304 13.44 231.904 13.84C231.504 14.24 231.024 14.44 230.464 14.44H230.224ZM230.304 39.2C229.797 39.2 229.37 39.0267 229.024 38.68C228.677 38.3333 228.504 37.9067 228.504 37.4V20.24C228.504 19.7333 228.677 19.3067 229.024 18.96C229.37 18.5867 229.797 18.4 230.304 18.4C230.837 18.4 231.277 18.5733 231.624 18.92C231.97 19.2667 232.144 19.7067 232.144 20.24V37.4C232.144 37.9067 231.957 38.3333 231.584 38.68C231.237 39.0267 230.81 39.2 230.304 39.2ZM247.905 39.4C245.985 39.4 244.211 38.9733 242.585 38.12C240.958 37.2667 239.651 36.04 238.665 34.44C237.705 32.84 237.225 30.96 237.225 28.8C237.225 26.64 237.705 24.76 238.665 23.16C239.651 21.56 240.958 20.3333 242.585 19.48C244.211 18.6267 245.985 18.2 247.905 18.2C249.318 18.2 250.531 18.3867 251.545 18.76C252.585 19.1067 253.545 19.56 254.425 20.12C254.958 20.4667 255.225 20.9333 255.225 21.52C255.225 21.92 255.065 22.2933 254.745 22.64C254.451 22.96 254.105 23.12 253.705 23.12C253.411 23.12 253.118 23.04 252.825 22.88C251.945 22.4267 251.185 22.1067 250.545 21.92C249.931 21.7067 249.158 21.6 248.225 21.6C245.931 21.6 244.131 22.2667 242.825 23.6C241.518 24.9067 240.865 26.64 240.865 28.8C240.865 30.96 241.518 32.7067 242.825 34.04C244.131 35.3467 245.931 36 248.225 36C249.158 36 249.931 35.9067 250.545 35.72C251.185 35.5067 251.945 35.1733 252.825 34.72C253.118 34.56 253.411 34.48 253.705 34.48C254.105 34.48 254.451 34.6533 254.745 35C255.065 35.32 255.225 35.68 255.225 36.08C255.225 36.6667 254.958 37.1333 254.425 37.48C253.545 38.04 252.585 38.5067 251.545 38.88C250.531 39.2267 249.318 39.4 247.905 39.4Z" fill="black"/>
<rect x="5.5" y="5.5" width="20" height="20" rx="5.5" fill="#FBCCFF" stroke="black"/>
<rect x="28.5" y="5.5" width="20" height="20" rx="5.5" fill="#B8F2FF" stroke="black"/>
<rect x="5.5" y="28.5" width="20" height="20" rx="5.5" fill="#DAFDCD" stroke="black"/>
<rect x="28.5" y="28.5" width="20" height="20" rx="5.5" fill="#FBF8C0" stroke="black"/>
</svg>
